<mxfile host="app.diagrams.net" modified="2024-05-28T09:43:37.891Z" agent="Mozilla/5.0 (Windows NT 10.0; Win64; x64) AppleWebKit/537.36 (KHTML, like Gecko) Chrome/124.0.0.0 Safari/537.36" version="24.1.0" etag="wCe7U6bvoFq3ouPC7rzj" type="github">
  <diagram name="第 1 页" id="P3PRF9sL8A8i7NnSt31k">
    <mxGraphModel>
      <root>
        <mxCell id="0" />
        <mxCell id="1" parent="0" />
      </root>
    </mxGraphModel>
  </diagram>
</mxfile>
